<svg width="152" height="24" viewBox="0 0 152 24" fill="none" xmlns="http://www.w3.org/2000/svg">
<path fill-rule="evenodd" clip-rule="evenodd" d="M13.1043 4.17701L14.9317 7.82776C15.1108 8.18616 15.4565 8.43467 15.8573 8.49218L19.9453 9.08062C20.9554 9.22644 21.3573 10.4505 20.6263 11.1519L17.6702 13.9924C17.3797 14.2718 17.2474 14.6733 17.3162 15.0676L18.0138 19.0778C18.1856 20.0698 17.1298 20.8267 16.227 20.3574L12.5732 18.4627C12.215 18.2768 11.786 18.2768 11.4268 18.4627L7.773 20.3574C6.87023 20.8267 5.81439 20.0698 5.98724 19.0778L6.68385 15.0676C6.75257 14.6733 6.62033 14.2718 6.32982 13.9924L3.37368 11.1519C2.64272 10.4505 3.04464 9.22644 4.05466 9.08062L8.14265 8.49218C8.54354 8.43467 8.89028 8.18616 9.06937 7.82776L10.8957 4.17701C11.3477 3.27433 12.6523 3.27433 13.1043 4.17701Z" fill="#FFB700"/>
<path fill-rule="evenodd" clip-rule="evenodd" d="M45.1043 4.17701L46.9317 7.82776C47.1108 8.18616 47.4565 8.43467 47.8573 8.49218L51.9453 9.08062C52.9554 9.22644 53.3573 10.4505 52.6263 11.1519L49.6702 13.9924C49.3797 14.2718 49.2474 14.6733 49.3162 15.0676L50.0138 19.0778C50.1856 20.0698 49.1298 20.8267 48.227 20.3574L44.5732 18.4627C44.215 18.2768 43.786 18.2768 43.4268 18.4627L39.773 20.3574C38.8702 20.8267 37.8144 20.0698 37.9872 19.0778L38.6838 15.0676C38.7526 14.6733 38.6203 14.2718 38.3298 13.9924L35.3737 11.1519C34.6427 10.4505 35.0446 9.22644 36.0547 9.08062L40.1427 8.49218C40.5435 8.43467 40.8903 8.18616 41.0694 7.82776L42.8957 4.17701C43.3477 3.27433 44.6523 3.27433 45.1043 4.17701Z" fill="#FFB700"/>
<path fill-rule="evenodd" clip-rule="evenodd" d="M77.1043 4.17701L78.9317 7.82776C79.1108 8.18616 79.4565 8.43467 79.8573 8.49218L83.9453 9.08062C84.9554 9.22644 85.3573 10.4505 84.6263 11.1519L81.6702 13.9924C81.3797 14.2718 81.2474 14.6733 81.3162 15.0676L82.0138 19.0778C82.1856 20.0698 81.1298 20.8267 80.227 20.3574L76.5732 18.4627C76.215 18.2768 75.786 18.2768 75.4268 18.4627L71.773 20.3574C70.8702 20.8267 69.8144 20.0698 69.9872 19.0778L70.6838 15.0676C70.7526 14.6733 70.6203 14.2718 70.3298 13.9924L67.3737 11.1519C66.6427 10.4505 67.0446 9.22644 68.0547 9.08062L72.1427 8.49218C72.5435 8.43467 72.8903 8.18616 73.0694 7.82776L74.8957 4.17701C75.3477 3.27433 76.6523 3.27433 77.1043 4.17701Z" fill="#FFB700"/>
<path fill-rule="evenodd" clip-rule="evenodd" d="M109.104 4.17701L110.932 7.82776C111.111 8.18616 111.456 8.43467 111.857 8.49218L115.945 9.08062C116.955 9.22644 117.357 10.4505 116.626 11.1519L113.67 13.9924C113.38 14.2718 113.247 14.6733 113.316 15.0676L114.014 19.0778C114.186 20.0698 113.13 20.8267 112.227 20.3574L108.573 18.4627C108.215 18.2768 107.786 18.2768 107.427 18.4627L103.773 20.3574C102.87 20.8267 101.814 20.0698 101.987 19.0778L102.684 15.0676C102.753 14.6733 102.62 14.2718 102.33 13.9924L99.3737 11.1519C98.6427 10.4505 99.0446 9.22644 100.055 9.08062L104.143 8.49218C104.544 8.43467 104.89 8.18616 105.069 7.82776L106.896 4.17701C107.348 3.27433 108.652 3.27433 109.104 4.17701Z" stroke="#FFB700" stroke-width="1.5" stroke-linecap="round" stroke-linejoin="round"/>
<path fill-rule="evenodd" clip-rule="evenodd" d="M108.573 4.17701V7.82776V8.49218V9.08062V11.1519V13.9924V15.0676V19.0778V18.4627C108.215 18.2768 107.786 18.2768 107.427 18.4627L103.773 20.3574C102.87 20.8267 101.814 20.0698 101.987 19.0778L102.684 15.0676C102.753 14.6733 102.62 14.2718 102.33 13.9924L99.3737 11.1519C98.6427 10.4505 99.0446 9.22644 100.055 9.08062L104.143 8.49218C104.544 8.43467 104.89 8.18616 105.069 7.82776L106.896 4.17701C107.348 3.27433 108.121 3.27433 108.573 4.17701Z" fill="#FFB700"/>
<path fill-rule="evenodd" clip-rule="evenodd" d="M141.104 4.17701L142.932 7.82776C143.111 8.18616 143.456 8.43467 143.857 8.49218L147.945 9.08062C148.955 9.22644 149.357 10.4505 148.626 11.1519L145.67 13.9924C145.38 14.2718 145.247 14.6733 145.316 15.0676L146.014 19.0778C146.186 20.0698 145.13 20.8267 144.227 20.3574L140.573 18.4627C140.215 18.2768 139.786 18.2768 139.427 18.4627L135.773 20.3574C134.87 20.8267 133.814 20.0698 133.987 19.0778L134.684 15.0676C134.753 14.6733 134.62 14.2718 134.33 13.9924L131.374 11.1519C130.643 10.4505 131.045 9.22644 132.055 9.08062L136.143 8.49218C136.544 8.43467 136.89 8.18616 137.069 7.82776L138.896 4.17701C139.348 3.27433 140.652 3.27433 141.104 4.17701Z" stroke="#FFB700" stroke-width="1.5" stroke-linecap="round" stroke-linejoin="round"/>
</svg>
